<svg width="200" height="80" viewBox="0 0 200 80" fill="none" xmlns="http://www.w3.org/2000/svg">
<path d="M18.2282 44.7438V51.8892C18.2282 53.0194 17.973 53.8579 17.4626 54.4412C16.9522 54.988 16.2596 55.2797 15.4211 55.2797C14.619 55.2797 13.9628 54.988 13.4524 54.4412C12.942 53.8943 12.6868 53.0194 12.6868 51.8892V43.322C12.6868 41.9731 12.6504 40.9158 12.541 40.1867C12.4316 39.4211 12.2129 38.8378 11.7754 38.3639C11.3744 37.8899 10.7182 37.6348 9.84324 37.6348C8.09333 37.6348 6.92672 38.2545 6.37988 39.4576C5.83303 40.6606 5.54137 42.4105 5.54137 44.6708V51.9257C5.54137 53.0558 5.28618 53.8943 4.77579 54.4412C4.2654 55.0245 3.60919 55.2797 2.77069 55.2797C1.96865 55.2797 1.27597 54.988 0.765582 54.4412C0.255192 53.8579 0 53.0194 0 51.9257V36.5411C0 35.5203 0.218736 34.7547 0.69267 34.2443C1.1666 33.7339 1.78636 33.4423 2.51549 33.4423C3.24462 33.4423 3.86438 33.6975 4.33831 34.1714C4.81225 34.6818 5.06744 35.338 5.06744 36.213V36.7233C6.01531 35.5932 6.99964 34.7911 8.05687 34.2808C9.11411 33.7704 10.3172 33.4787 11.5931 33.4787C12.942 33.4787 14.1086 33.7339 15.093 34.2808C16.0773 34.8276 16.8793 35.6296 17.4991 36.7233C18.4105 35.6296 19.3584 34.7911 20.4156 34.2808C21.4364 33.7339 22.603 33.4787 23.8425 33.4787C25.3008 33.4787 26.5767 33.7704 27.634 34.3537C28.6912 34.937 29.4932 35.7755 30.0036 36.8327C30.4776 37.817 30.6963 39.3482 30.6963 41.4262V51.9257C30.6963 53.0558 30.4411 53.8943 29.9307 54.4776C29.4203 55.0609 28.7277 55.3161 27.8892 55.3161C27.0871 55.3161 26.3945 55.0245 25.8841 54.4776C25.3737 53.8943 25.1185 53.0558 25.1185 51.9621V42.9209C25.1185 41.7543 25.082 40.8429 24.9727 40.1502C24.8633 39.4576 24.6081 38.8743 24.1706 38.4003C23.7331 37.9264 23.0769 37.7077 22.202 37.7077C21.5093 37.7077 20.8166 37.9264 20.1969 38.3274C19.5771 38.7649 19.0667 39.3117 18.7021 40.0044C18.447 40.8429 18.2282 42.447 18.2282 44.7438Z" fill="#E5E4E2"/>
<path d="M53.6273 52.2537C52.3149 53.2745 51.0754 54.0036 49.8723 54.514C48.6693 55.0244 47.2839 55.2796 45.7892 55.2796C44.4039 55.2796 43.2008 55.0244 42.1436 54.4775C41.0863 53.9307 40.2843 53.2016 39.7374 52.2537C39.1906 51.3058 38.8989 50.3215 38.8989 49.2278C38.8989 47.7696 39.3729 46.4936 40.2843 45.4728C41.2321 44.452 42.5081 43.7229 44.1122 43.3948C44.4403 43.3219 45.3153 43.1396 46.6642 42.8479C48.013 42.5563 49.1796 42.3376 50.1275 42.0824C51.0754 41.8636 52.1326 41.572 53.2628 41.2439C53.1899 39.8221 52.8982 38.8013 52.4243 38.1086C51.9139 37.4524 50.8566 37.1243 49.289 37.1243C47.9401 37.1243 46.8829 37.3066 46.2267 37.7076C45.534 38.0722 44.9507 38.6554 44.4403 39.421C43.9299 40.1866 43.6018 40.697 43.3831 40.9157C43.1643 41.1709 42.7269 41.2803 42.0706 41.2803C41.4509 41.2803 40.9405 41.098 40.503 40.697C40.0655 40.296 39.8468 39.8221 39.8468 39.2023C39.8468 38.2544 40.1749 37.343 40.8676 36.4316C41.5238 35.5567 42.581 34.7911 44.0028 34.2442C45.4246 33.6609 47.1745 33.3693 49.289 33.3693C51.6587 33.3693 53.518 33.6609 54.8669 34.2078C56.2157 34.7546 57.1636 35.6296 57.7469 36.8691C58.2938 38.0721 58.5854 39.6762 58.5854 41.6813C58.5854 42.9573 58.5854 44.0145 58.5854 44.8895C58.5854 45.7645 58.5854 46.7488 58.549 47.806C58.549 48.8268 58.7312 49.884 59.0593 50.9777C59.3874 52.0714 59.5697 52.7641 59.5697 53.0922C59.5697 53.6391 59.3145 54.1494 58.8041 54.5869C58.2938 55.0244 57.7105 55.2796 57.0542 55.2796C56.5074 55.2796 55.9605 55.0244 55.4137 54.514C54.8304 53.9671 54.2471 53.238 53.6273 52.2537ZM53.2992 44.4885C52.4972 44.7801 51.367 45.0718 49.8723 45.3999C48.3776 45.728 47.3204 45.9467 46.7371 46.0926C46.1538 46.2384 45.6069 46.53 45.0965 46.9675C44.5861 47.405 44.2945 48.0248 44.2945 48.7903C44.2945 49.5924 44.5861 50.285 45.2059 50.8684C45.8257 51.4517 46.6277 51.7068 47.612 51.7068C48.6693 51.7068 49.6536 51.4881 50.565 51.0142C51.4764 50.5403 52.1326 49.9569 52.5336 49.2278C53.0076 48.4258 53.2628 47.0769 53.2628 45.2176V44.4885H53.2992Z" fill="#E5E4E2"/>
<path d="M82.7561 52.2172V51.6704C82.027 52.5089 81.3343 53.1651 80.6052 53.6755C79.9125 54.1859 79.1469 54.5869 78.3084 54.8421C77.5064 55.0973 76.5949 55.2431 75.6106 55.2431C74.3346 55.2431 73.1316 54.9879 72.0379 54.4411C70.9442 53.8942 69.9963 53.1286 69.1943 52.1079C68.3922 51.0871 67.7725 49.9205 67.3715 48.5351C66.9704 47.1862 66.7517 45.6915 66.7517 44.1239C66.7517 40.7699 67.5537 38.145 69.1943 36.2858C70.8348 34.4265 72.9858 33.4786 75.6835 33.4786C77.2147 33.4786 78.5271 33.7338 79.5844 34.2807C80.6416 34.8275 81.6988 35.6296 82.6832 36.7232V28.7757C82.6832 27.6821 82.9019 26.8435 83.3394 26.2602C83.7769 25.6769 84.3966 25.4218 85.2351 25.4218C86.0372 25.4218 86.6569 25.677 87.1309 26.1873C87.5683 26.6977 87.7871 27.4633 87.7871 28.4841V52.1808C87.7871 53.2016 87.5683 53.9671 87.0944 54.4775C86.6205 54.9879 86.0007 55.2431 85.2716 55.2431C84.5424 55.2431 83.9227 54.9879 83.4488 54.4411C83.0113 53.9671 82.7561 53.2016 82.7561 52.2172ZM72.1837 44.3062C72.1837 45.7644 72.4025 47.004 72.8764 48.0247C73.3139 49.0455 73.9336 49.8111 74.7357 50.3215C75.5377 50.8319 76.3762 51.0871 77.3241 51.0871C78.2719 51.0871 79.1469 50.8319 79.9125 50.358C80.6781 49.884 81.2978 49.1184 81.7718 48.0977C82.2457 47.0769 82.4644 45.8009 82.4644 44.3062C82.4644 42.8844 82.2457 41.6449 81.7718 40.6241C81.2978 39.6033 80.6781 38.8013 79.876 38.2544C79.074 37.7076 78.199 37.4524 77.2512 37.4524C76.2668 37.4524 75.3919 37.744 74.6263 38.2909C73.8607 38.8377 73.2409 39.6398 72.8399 40.697C72.4024 41.7178 72.1837 42.9573 72.1837 44.3062Z" fill="#E5E4E2"/>
<path d="M111.228 52.2538V51.5611C110.572 52.3632 109.916 53.0558 109.187 53.6027C108.494 54.1495 107.692 54.5505 106.854 54.8422C106.015 55.0974 105.067 55.2432 103.974 55.2432C102.661 55.2432 101.495 54.988 100.474 54.4412C99.453 53.8943 98.651 53.1652 98.0677 52.2173C97.4114 51.0872 97.0469 49.4466 97.0469 47.2957V36.6504C97.0469 35.5567 97.3021 34.7547 97.776 34.2443C98.2499 33.6975 98.9061 33.4423 99.7082 33.4423C100.51 33.4423 101.166 33.6975 101.677 34.2443C102.187 34.7912 102.442 35.5932 102.442 36.6504V45.2541C102.442 46.4937 102.552 47.5509 102.771 48.3894C102.989 49.2279 103.354 49.8841 103.901 50.3945C104.448 50.8684 105.177 51.1236 106.125 51.1236C107.036 51.1236 107.874 50.8684 108.676 50.3216C109.479 49.7747 110.062 49.0821 110.426 48.2071C110.718 47.4415 110.864 45.7645 110.864 43.2126V36.6869C110.864 35.6296 111.119 34.8276 111.629 34.2808C112.14 33.7339 112.76 33.4787 113.562 33.4787C114.364 33.4787 115.02 33.7339 115.494 34.2808C115.968 34.8276 116.223 35.6296 116.223 36.6869V52.2173C116.223 53.2381 116.004 54.0037 115.53 54.5141C115.056 55.0245 114.473 55.2797 113.744 55.2797C113.015 55.2797 112.395 55.0245 111.921 54.4776C111.447 53.9672 111.228 53.2016 111.228 52.2538Z" fill="#E5E4E2"/>
<path d="M168.247 52.837L163.507 45.0353L160.591 47.806V52.0714C160.591 53.0922 160.336 53.8943 159.789 54.4776C159.242 55.0244 158.622 55.3161 157.893 55.3161C157.054 55.3161 156.435 55.0244 155.961 54.4776C155.487 53.9307 155.268 53.1287 155.268 52.035V29.1404C155.268 27.9373 155.487 27.0259 155.961 26.4061C156.435 25.7864 157.091 25.4583 157.929 25.4583C158.768 25.4583 159.424 25.7499 159.898 26.2967C160.372 26.8436 160.627 27.6821 160.627 28.8122V41.8272L166.679 35.4838C167.408 34.6817 167.991 34.1713 168.392 33.8797C168.793 33.588 169.267 33.4422 169.814 33.4422C170.47 33.4422 171.054 33.6609 171.491 34.0984C171.929 34.5359 172.147 35.0463 172.147 35.7025C172.147 36.5046 171.418 37.5253 169.96 38.8378L167.116 41.4626L172.621 50.1393C173.022 50.7955 173.314 51.2694 173.496 51.5975C173.679 51.9256 173.751 52.2537 173.751 52.5454C173.751 53.3839 173.533 54.0766 173.059 54.5505C172.585 55.0244 171.965 55.2796 171.236 55.2796C170.58 55.2796 170.069 55.0973 169.705 54.7328C169.34 54.4047 168.83 53.7484 168.247 52.837Z" fill="#E5E4E2"/>
<path d="M194.058 52.2537C192.745 53.2745 191.506 54.0036 190.302 54.514C189.099 55.0244 187.714 55.2796 186.219 55.2796C184.834 55.2796 183.631 55.0244 182.574 54.4775C181.516 53.9307 180.714 53.2016 180.168 52.2537C179.621 51.3058 179.329 50.3215 179.329 49.2278C179.329 47.7696 179.803 46.4936 180.714 45.4728C181.662 44.452 182.938 43.7229 184.542 43.3948C184.87 43.3219 185.745 43.1396 187.094 42.8479C188.443 42.5563 189.61 42.3376 190.558 42.0824C191.506 41.8636 192.563 41.572 193.693 41.2439C193.62 39.8221 193.328 38.8013 192.854 38.1086C192.344 37.4524 191.287 37.1243 189.719 37.1243C188.37 37.1243 187.313 37.3066 186.657 37.7076C185.964 38.0722 185.381 38.6554 184.87 39.421C184.36 40.1866 184.032 40.697 183.813 40.9157C183.595 41.1709 183.157 41.2803 182.501 41.2803C181.881 41.2803 181.371 41.098 180.933 40.697C180.496 40.296 180.277 39.8221 180.277 39.2023C180.277 38.2544 180.605 37.343 181.298 36.4316C181.954 35.5567 183.011 34.7911 184.433 34.2442C185.855 33.6609 187.605 33.3693 189.719 33.3693C192.089 33.3693 193.948 33.6609 195.297 34.2078C196.646 34.7546 197.594 35.6296 198.177 36.8691C198.724 38.0721 199.016 39.6762 199.016 41.6813C199.016 42.9573 199.016 44.0145 199.016 44.8895C199.016 45.7645 199.016 46.7488 198.979 47.806C198.979 48.8268 199.161 49.884 199.49 50.9777C199.818 52.0714 200 52.7641 200 53.0922C200 53.6391 199.745 54.1494 199.234 54.5869C198.724 55.0244 198.141 55.2796 197.484 55.2796C196.938 55.2796 196.391 55.0244 195.844 54.514C195.224 53.9671 194.641 53.238 194.058 52.2537ZM193.693 44.4885C192.891 44.7801 191.761 45.0718 190.266 45.3999C188.771 45.728 187.714 45.9467 187.131 46.0926C186.547 46.2384 186.001 46.53 185.49 46.9675C184.98 47.405 184.688 48.0248 184.688 48.7903C184.688 49.5924 184.98 50.285 185.6 50.8684C186.219 51.4517 187.021 51.7068 188.006 51.7068C189.063 51.7068 190.047 51.4881 190.959 51.0142C191.87 50.5403 192.526 49.9569 192.927 49.2278C193.401 48.4258 193.656 47.0769 193.656 45.2176V44.4885H193.693Z" fill="#E5E4E2"/>
<path d="M143.31 25.4583L140.977 24L140.722 25.6041C140.576 26.0416 140.357 28.1925 140.357 28.8487V29.1039V29.2133V36.7962C139.336 35.7025 138.316 34.864 137.258 34.3536C136.201 33.8068 134.889 33.5516 133.358 33.5516C130.696 33.5516 128.545 34.4995 126.905 36.3587C125.264 38.218 124.426 40.8429 124.426 44.1969C124.426 45.8009 124.645 47.2592 125.046 48.6446C125.447 49.9934 126.066 51.1965 126.868 52.2173C127.67 53.2381 128.618 54.0037 129.712 54.5505C130.806 55.0973 132.009 55.389 133.285 55.389C134.269 55.389 135.144 55.2432 135.982 54.988C136.821 54.7328 137.55 54.3318 138.279 53.8214C138.972 53.311 139.701 52.6183 140.43 51.8163V52.3631C140.43 53.3474 140.685 54.113 141.159 54.6234C141.633 55.1702 142.253 55.4254 142.982 55.4254C143.748 55.4254 144.331 55.1703 144.805 54.6599C145.279 54.1495 145.498 53.3839 145.498 52.3631V29.5414V28.5206V25.8593L143.31 25.4583ZM139.373 48.1342C138.899 49.1549 138.279 49.8841 137.514 50.3945C136.748 50.9048 135.873 51.1236 134.925 51.1236C133.977 51.1236 133.139 50.8684 132.337 50.358C131.535 49.8476 130.915 49.082 130.478 48.0612C130.04 47.0405 129.785 45.8009 129.785 44.3427C129.785 42.9573 130.004 41.7543 130.441 40.697C130.879 39.6398 131.462 38.8378 132.227 38.2909C132.993 37.7441 133.868 37.4524 134.852 37.4524C135.8 37.4524 136.675 37.7441 137.477 38.2545C138.279 38.8013 138.899 39.6034 139.373 40.6241C139.847 41.6449 140.066 42.8844 140.066 44.3062C140.066 45.8374 139.847 47.1134 139.373 48.1342ZM144.149 31.2548C144.149 31.8746 143.638 32.385 143.019 32.385C142.399 32.385 141.888 31.8746 141.888 31.2548C141.888 30.6351 142.399 30.1247 143.019 30.1247C143.638 30.0882 144.149 30.5986 144.149 31.2548ZM143.456 40.77C142.873 41.0252 142.18 40.7335 141.961 40.1502C141.706 39.5669 141.998 38.8742 142.581 38.6555C143.164 38.4003 143.857 38.6919 144.076 39.2752C144.331 39.8585 144.039 40.5148 143.456 40.77ZM143.456 36.541C142.873 36.7962 142.18 36.5045 141.961 35.9212C141.706 35.3379 141.998 34.6817 142.581 34.4265C143.164 34.1713 143.857 34.463 144.076 35.0463C144.331 35.6296 144.039 36.2858 143.456 36.541Z" fill="#E5E4E2"/>
</svg>
