<svg width="512" height="512" viewBox="0 0 512 512" fill="none" xmlns="http://www.w3.org/2000/svg">
<path d="M82.4275 471H36V339.746H81.0312L99.8815 367.091L118.848 339.746H164.228V471H117.801V405.257L99.9978 430.623L82.5439 405.257V471H82.4275Z" fill="#E5E4E2"/>
<path d="M251.149 410.842L240.793 432.252L201.697 423.06L264.298 297.74C264.298 297.74 333.765 155.2 319.336 310.773C304.908 466.346 318.056 444.935 317.474 450.404C316.893 455.873 278.843 441.212 278.843 441.212L279.192 417.474C273.374 403.395 262.902 405.14 251.149 410.842ZM265.462 381.287C269.418 389.432 277.098 380.472 279.774 384.661C282.45 388.85 271.396 381.17 280.356 350.568C304.559 268.185 260.225 370.582 265.462 381.287Z" fill="#E5E4E2"/>
<path d="M366.695 471V339.746H410.911C423.245 339.746 432.787 340.91 439.303 343.121C445.935 345.332 452.219 349.52 458.153 355.571C464.204 361.622 468.742 368.953 471.884 377.563C475.025 386.174 476.538 395.832 476.538 406.304C476.538 415.147 475.142 423.525 472.466 431.554C469.789 439.583 465.949 446.448 460.946 452.382C456.059 458.317 450.706 462.622 445.005 465.182C439.303 467.742 433.834 469.371 428.831 470.069C423.827 470.651 415.333 471 403.581 471H366.695ZM414.169 389.781H413.122V420.034H414.286C419.987 420.034 424.06 418.871 426.62 416.427C429.18 413.984 430.46 410.144 430.46 404.791C430.46 399.555 429.18 395.715 426.62 393.388C424.176 390.945 419.987 389.781 414.169 389.781Z" fill="#E5E4E2"/>
<path d="M346.564 68.6282C369.138 75.1443 388.803 83.9876 403.115 93.1801C403.231 92.9473 403.231 92.7146 403.348 92.5983C408.933 74.6789 391.13 53.1523 363.553 44.5417C336.557 36.1638 310.26 43.1454 303.86 60.2503C316.892 61.5302 331.437 64.3228 346.564 68.6282Z" fill="#E5E4E2" stroke="#E5E4E2" stroke-miterlimit="10"/>
<path d="M357.036 70.0245C289.781 48.0326 225.085 61.1812 212.634 99.3472C206.351 118.547 214.496 140.422 232.648 160.32C219.034 142.633 212.401 123.085 217.87 104.234C225.085 79.3333 288.268 74.2135 350.637 93.7619C414.984 113.892 459.898 156.48 450.357 181.613C445.353 194.878 435.579 205.002 420.918 211.634C438.605 205.002 451.288 193.948 456.175 179.054C468.742 140.888 424.292 92.0165 357.036 70.0245Z" fill="#E5E4E2" stroke="#E5E4E2" stroke-miterlimit="10"/>
<path d="M227.295 122.386C230.444 122.386 232.997 119.834 232.997 116.685C232.997 113.536 230.444 110.983 227.295 110.983C224.146 110.983 221.594 113.536 221.594 116.685C221.594 119.834 224.146 122.386 227.295 122.386Z" fill="#E5E4E2" stroke="#E5E4E2" stroke-miterlimit="10"/>
<path d="M267.556 108.307C270.705 108.307 273.258 105.754 273.258 102.605C273.258 99.4563 270.705 96.9036 267.556 96.9036C264.407 96.9036 261.854 99.4563 261.854 102.605C261.854 105.754 264.407 108.307 267.556 108.307Z" fill="#E5E4E2" stroke="#E5E4E2" stroke-miterlimit="10"/>
<path d="M312.587 109.703C315.736 109.703 318.289 107.15 318.289 104.002C318.289 100.853 315.736 98.2999 312.587 98.2999C309.438 98.2999 306.885 100.853 306.885 104.002C306.885 107.15 309.438 109.703 312.587 109.703Z" fill="#E5E4E2" stroke="#E5E4E2" stroke-miterlimit="10"/>
<path d="M360.527 121.921C363.676 121.921 366.229 119.368 366.229 116.219C366.229 113.07 363.676 110.518 360.527 110.518C357.378 110.518 354.826 113.07 354.826 116.219C354.826 119.368 357.378 121.921 360.527 121.921Z" fill="#E5E4E2" stroke="#E5E4E2" stroke-miterlimit="10"/>
<path d="M408.235 150.08C411.384 150.08 413.936 147.527 413.936 144.378C413.936 141.229 411.384 138.677 408.235 138.677C405.086 138.677 402.533 141.229 402.533 144.378C402.533 147.527 405.086 150.08 408.235 150.08Z" fill="#E5E4E2" stroke="#E5E4E2" stroke-miterlimit="10"/>
<path d="M433.717 187.664C436.866 187.664 439.419 185.111 439.419 181.963C439.419 178.814 436.866 176.261 433.717 176.261C430.568 176.261 428.016 178.814 428.016 181.963C428.016 185.111 430.568 187.664 433.717 187.664Z" fill="#E5E4E2" stroke="#E5E4E2" stroke-miterlimit="10"/>
<path d="M279.774 166.836L182.613 409.562L272.676 158.691C272.676 158.691 330.39 127.623 368.672 183.242L360.644 327.179L361.924 187.781C361.924 187.781 324.805 141.237 279.774 166.836Z" fill="#E5E4E2" stroke="#E5E4E2" stroke-miterlimit="10"/>
</svg>
